<svg xmlns="http://www.w3.org/2000/svg" width="19.916" height="19.377" viewBox="0 0 19.916 19.377"><defs><style>.a{fill:#abaaba;}</style></defs><path class="a" d="M19.381,8.428h0L11.254.523a1.87,1.87,0,0,0-2.593,0L.541,8.423l-.008.008a1.752,1.752,0,0,0,0,2.519,1.847,1.847,0,0,0,1.217.52l.057,0h.324V17.29a2.12,2.12,0,0,0,2.146,2.088H7.458a.576.576,0,0,0,.584-.568v-4.56A.967.967,0,0,1,9.02,13.3H10.9a.967.967,0,0,1,.979.953v4.56a.576.576,0,0,0,.584.568h3.179a2.12,2.12,0,0,0,2.146-2.088V11.473h.3a1.848,1.848,0,0,0,1.3-.523,1.753,1.753,0,0,0,0-2.522Z"/></svg>